HIERARCHY
ROOT Hips
{
	OFFSET 0.000000 100.481300 0.000000
	CHANNELS 6 Xposition Yposition Zposition Xrotation Yrotation Zrotation 
	JOINT Spine
	{
		OFFSET -0.279200 12.230698 -2.892100
		CHANNELS 3 Xrotation Yrotation Zrotation
		JOINT Spine1
		{
			OFFSET -0.232667 10.192268 -1.242267
			CHANNELS 3 Xrotation Yrotation Zrotation
			JOINT Spine1_split
			{
				OFFSET -0.232667 10.192268 -1.242267
				CHANNELS 3 Xrotation Yrotation Zrotation
				JOINT Spine2
				{
					OFFSET -0.232667 10.192268 -1.242267
					CHANNELS 3 Xrotation Yrotation Zrotation
					JOINT Neck
					{
						OFFSET -0.418800 17.814194 8.416900
						CHANNELS 3 Xrotation Yrotation Zrotation
						JOINT Head
						{
							OFFSET 0.000000 7.031097 3.806800
							CHANNELS 3 Xrotation Yrotation Zrotation
							JOINT HeadTop_End
							{
								OFFSET 0.000000 24.646606 12.978600
								CHANNELS 3 Xrotation Yrotation Zrotation
								End Site
								{
									OFFSET 0.000000 0.000000 0.000000
								}
							}
						}
					}
					JOINT LeftShoulder
					{
						OFFSET 8.476499 7.247704 -3.868750
						CHANNELS 3 Xrotation Yrotation Zrotation
						JOINT LeftShoulder_split
						{
							OFFSET 8.476499 7.247704 -3.868750
							CHANNELS 3 Xrotation Yrotation Zrotation
							JOINT LeftArm
							{
								OFFSET 9.308998 -2.777710 0.208600
								CHANNELS 3 Xrotation Yrotation Zrotation
								JOINT LeftForeArm
								{
									OFFSET 29.972298 0.000000 0.000000
									CHANNELS 3 Xrotation Yrotation Zrotation
									JOINT LeftHand
									{
										OFFSET 26.026505 0.000000 0.000000
										CHANNELS 3 Xrotation Yrotation Zrotation
										JOINT LeftHandThumb1
										{
											OFFSET 12.240501 -7.147949 9.207150
											CHANNELS 3 Xrotation Yrotation Zrotation
											JOINT LeftHandThumb2
											{
												OFFSET 4.138618 -2.389435 2.389433
												CHANNELS 3 Xrotation Yrotation Zrotation
												JOINT LeftHandThumb3
												{
													OFFSET 2.726913 -1.574387 1.574386
													CHANNELS 3 Xrotation Yrotation Zrotation
													JOINT LeftHandThumb4
													{
														OFFSET 3.941010 -2.275345 2.275342
														CHANNELS 3 Xrotation Yrotation Zrotation
														End Site
														{
															OFFSET 0.000000 0.000000 0.000000
														}
													}
												}
											}
										}
										JOINT LeftHandIndex1
										{
											OFFSET 24.424698 -1.985611 5.953459
											CHANNELS 3 Xrotation Yrotation Zrotation
											JOINT LeftHandIndex2
											{
												OFFSET 6.426697 0.000000 0.000000
												CHANNELS 3 Xrotation Yrotation Zrotation
												JOINT LeftHandIndex3
												{
													OFFSET 5.337898 0.000000 0.000000
													CHANNELS 3 Xrotation Yrotation Zrotation
													JOINT LeftHandIndex4
													{
														OFFSET 4.409401 0.000000 0.000000
														CHANNELS 3 Xrotation Yrotation Zrotation
														End Site
														{
															OFFSET 0.000000 0.000000 0.000000
														}
													}
												}
											}
										}
										JOINT LeftHandMiddle1
										{
											OFFSET 23.810104 0.000000 0.000000
											CHANNELS 3 Xrotation Yrotation Zrotation
											JOINT LeftHandMiddle2
											{
												OFFSET 7.176498 0.000000 0.000000
												CHANNELS 3 Xrotation Yrotation Zrotation
												JOINT LeftHandMiddle3
												{
													OFFSET 6.774902 0.000000 0.000000
													CHANNELS 3 Xrotation Yrotation Zrotation
													JOINT LeftHandMiddle4
													{
														OFFSET 5.403328 0.000000 0.000000
														CHANNELS 3 Xrotation Yrotation Zrotation
														End Site
														{
															OFFSET 0.000000 0.000000 0.000000
														}
													}
												}
											}
										}
										JOINT LeftHandRing1
										{
											OFFSET 22.908401 -0.839279 -6.020567
											CHANNELS 3 Xrotation Yrotation Zrotation
											JOINT LeftHandRing2
											{
												OFFSET 6.337502 0.000000 0.000000
												CHANNELS 3 Xrotation Yrotation Zrotation
												JOINT LeftHandRing3
												{
													OFFSET 5.779297 0.000000 0.000000
													CHANNELS 3 Xrotation Yrotation Zrotation
													JOINT LeftHandRing4
													{
														OFFSET 4.965698 0.000000 0.000000
														CHANNELS 3 Xrotation Yrotation Zrotation
														End Site
														{
															OFFSET 0.000000 0.000000 0.000000
														}
													}
												}
											}
										}
										JOINT LeftHandPinky1
										{
											OFFSET 20.037003 -1.530319 -10.950146
											CHANNELS 3 Xrotation Yrotation Zrotation
											JOINT LeftHandPinky2
											{
												OFFSET 5.254700 0.000000 0.000000
												CHANNELS 3 Xrotation Yrotation Zrotation
												JOINT LeftHandPinky3
												{
													OFFSET 4.810204 0.000000 0.000000
													CHANNELS 3 Xrotation Yrotation Zrotation
													JOINT LeftHandPinky4
													{
														OFFSET 3.647202 0.000000 0.000000
														CHANNELS 3 Xrotation Yrotation Zrotation
														End Site
														{
															OFFSET 0.000000 0.000000 0.000000
														}
													}
												}
											}
										}
									}
								}
							}
						}
					}
					JOINT RightShoulder
					{
						OFFSET -7.570500 7.247704 -3.868750
						CHANNELS 3 Xrotation Yrotation Zrotation
						JOINT RightShoulder_split
						{
							OFFSET -7.570500 7.247704 -3.868750
							CHANNELS 3 Xrotation Yrotation Zrotation
							JOINT RightArm
							{
								OFFSET -9.308998 -2.777710 0.208500
								CHANNELS 3 Xrotation Yrotation Zrotation
								JOINT RightForeArm
								{
									OFFSET -29.972300 0.000000 0.000000
									CHANNELS 3 Xrotation Yrotation Zrotation
									JOINT RightHand
									{
										OFFSET -26.026505 0.000000 0.000000
										CHANNELS 3 Xrotation Yrotation Zrotation
										JOINT RightHandThumb1
										{
											OFFSET -12.240601 -7.148026 9.207092
											CHANNELS 3 Xrotation Yrotation Zrotation
											JOINT RightHandThumb2
											{
												OFFSET -4.138618 -2.389435 2.389433
												CHANNELS 3 Xrotation Yrotation Zrotation
												JOINT RightHandThumb3
												{
													OFFSET -2.726974 -1.574417 1.574421
													CHANNELS 3 Xrotation Yrotation Zrotation
													JOINT RightHandThumb4
													{
														OFFSET -3.941010 -2.275345 2.275343
														CHANNELS 3 Xrotation Yrotation Zrotation
														End Site
														{
															OFFSET 0.000000 0.000000 0.000000
														}
													}
												}
											}
										}
										JOINT RightHandIndex1
										{
											OFFSET -24.424698 -1.985657 5.953444
											CHANNELS 3 Xrotation Yrotation Zrotation
											JOINT RightHandIndex2
											{
												OFFSET -6.426697 0.000000 0.000000
												CHANNELS 3 Xrotation Yrotation Zrotation
												JOINT RightHandIndex3
												{
													OFFSET -5.337898 0.000000 0.000000
													CHANNELS 3 Xrotation Yrotation Zrotation
													JOINT RightHandIndex4
													{
														OFFSET -4.409401 0.000000 0.000000
														CHANNELS 3 Xrotation Yrotation Zrotation
														End Site
														{
															OFFSET 0.000000 0.000000 0.000000
														}
													}
												}
											}
										}
										JOINT RightHandMiddle1
										{
											OFFSET -23.810097 0.000000 0.000000
											CHANNELS 3 Xrotation Yrotation Zrotation
											JOINT RightHandMiddle2
											{
												OFFSET -7.176498 0.000000 0.000000
												CHANNELS 3 Xrotation Yrotation Zrotation
												JOINT RightHandMiddle3
												{
													OFFSET -6.774902 0.000000 0.000000
													CHANNELS 3 Xrotation Yrotation Zrotation
													JOINT RightHandMiddle4
													{
														OFFSET -5.403328 0.000000 0.000000
														CHANNELS 3 Xrotation Yrotation Zrotation
														End Site
														{
															OFFSET 0.000000 0.000000 0.000000
														}
													}
												}
											}
										}
										JOINT RightHandRing1
										{
											OFFSET -22.908302 -0.839325 -6.020576
											CHANNELS 3 Xrotation Yrotation Zrotation
											JOINT RightHandRing2
											{
												OFFSET -6.337502 0.000000 0.000000
												CHANNELS 3 Xrotation Yrotation Zrotation
												JOINT RightHandRing3
												{
													OFFSET -5.779297 0.000000 0.000000
													CHANNELS 3 Xrotation Yrotation Zrotation
													JOINT RightHandRing4
													{
														OFFSET -4.965698 0.000000 0.000000
														CHANNELS 3 Xrotation Yrotation Zrotation
														End Site
														{
															OFFSET 0.000000 0.000000 0.000000
														}
													}
												}
											}
										}
										JOINT RightHandPinky1
										{
											OFFSET -20.037003 -1.530334 -10.950259
											CHANNELS 3 Xrotation Yrotation Zrotation
											JOINT RightHandPinky2
											{
												OFFSET -5.254700 0.000000 0.000000
												CHANNELS 3 Xrotation Yrotation Zrotation
												JOINT RightHandPinky3
												{
													OFFSET -4.810204 0.000000 0.000000
													CHANNELS 3 Xrotation Yrotation Zrotation
													JOINT RightHandPinky4
													{
														OFFSET -3.647202 0.000000 0.000000
														CHANNELS 3 Xrotation Yrotation Zrotation
														End Site
														{
															OFFSET 0.000000 0.000000 0.000000
														}
													}
												}
											}
										}
									}
								}
							}
						}
					}
				}
			}
		}
	}
	JOINT LeftUpLeg
	{
		OFFSET 15.427100 -6.655098 0.678600
		CHANNELS 3 Xrotation Yrotation Zrotation
		JOINT LeftLeg
		{
			OFFSET 4.081073 -39.591068 13.024000
			CHANNELS 3 Xrotation Yrotation Zrotation
			JOINT LeftFoot
			{
				OFFSET -4.081074 -37.707932 -15.979700
				CHANNELS 3 Xrotation Yrotation Zrotation
				JOINT LeftToeBase
				{
					OFFSET 5.346399 -15.068900 20.645000
					CHANNELS 3 Xrotation Yrotation Zrotation
					JOINT LeftToe_End
					{
						OFFSET 2.754700 0.931300 11.300900
						CHANNELS 3 Xrotation Yrotation Zrotation
						End Site
						{
							OFFSET 0.000000 0.000000 0.000000
						}
					}
				}
			}
		}
	}
	JOINT RightUpLeg
	{
		OFFSET -15.569500 -6.655098 0.678600
		CHANNELS 3 Xrotation Yrotation Zrotation
		JOINT RightLeg
		{
			OFFSET -4.081825 -39.591045 13.023800
			CHANNELS 3 Xrotation Yrotation Zrotation
			JOINT RightFoot
			{
				OFFSET 4.081824 -37.707954 -15.979600
				CHANNELS 3 Xrotation Yrotation Zrotation
				JOINT RightToeBase
				{
					OFFSET -5.346400 -15.068900 20.645000
					CHANNELS 3 Xrotation Yrotation Zrotation
					JOINT RightToe_End
					{
						OFFSET -2.754700 0.931300 11.300900
						CHANNELS 3 Xrotation Yrotation Zrotation
						End Site
						{
							OFFSET 0.000000 0.000000 0.000000
						}
					}
				}
			}
		}
	}
}
MOTION
Frames: 5
Frame Time: 0.016667
4.530155 80.360992 -8.043488 4.989819 -64.014855 5.854871 6.023982 -0.116714 -9.571532 2.022907 1.037168 -3.225559 0.000000 0.000000 0.000000 1.954055 1.061958 -3.259242 -0.427864 1.561225 3.150432 -6.501611 52.691132 -2.930367 0.000001 0.000000 -0.000000 8.323265 13.077825 -7.024601 0.000000 0.000000 0.000000 9.541101 6.100870 -50.685639 -17.718211 -52.472587 -11.271226 -68.344334 2.082883 12.151062 40.109897 -15.297247 -0.360555 5.639837 28.097959 11.338794 1.088534 40.896284 22.734034 0.000001 -0.000000 -0.000001 6.882201 2.840054 -61.140513 8.247964 7.640066 -89.897850 2.146074 8.173389 -41.827798 0.000001 -0.000002 -0.000000 -2.345571 4.688883 -62.655306 8.754111 9.897151 -87.051294 1.995358 4.929244 -37.483320 0.000001 0.000001 -0.000000 -9.042524 10.045739 -60.766240 8.524052 9.508848 -66.893001 6.576529 9.896775 -70.385168 0.000000 -0.000001 0.000001 -17.946976 14.755019 -51.485877 8.868425 8.667041 -84.812016 4.540477 8.852554 -59.152983 0.000003 0.000001 -0.000001 -1.250376 0.958160 0.166087 0.000000 0.000000 0.000000 14.011429 15.962897 54.635916 -3.654935 37.198723 3.123707 -40.713877 8.548939 -33.022267 -1.061787 -5.152537 8.081554 1.452040 -24.614571 -6.362827 -3.138356 5.616692 2.809228 -0.000001 0.000000 -0.000000 0.188944 0.143008 1.399189 -0.095004 -0.785882 10.671231 -0.179635 -2.788593 3.080025 0.000001 -0.000002 -0.000002 0.348239 -5.918448 2.583750 1.609640 -4.842101 28.629274 0.017221 -0.456563 8.215510 0.000002 -0.000000 -0.000000 0.965513 -11.985693 1.668188 1.794835 -3.771875 26.865468 1.656432 -4.624054 23.386277 0.000001 -0.000000 0.000000 2.078717 -19.147952 10.710193 3.052580 -1.679791 16.780163 6.366959 -5.015702 28.949210 0.000003 0.000001 -0.000000 -43.345453 9.658425 38.188182 57.301141 1.759829 -0.096700 3.043101 4.591199 -16.544339 2.074129 -0.000511 0.000015 -0.000000 -0.000000 -0.000000 -34.323780 -17.000804 -34.657821 41.848309 8.749189 0.921085 -12.412901 -0.403834 16.962855 0.000269 -0.000177 0.000005 0.000000 0.000000 -0.000000 
4.225279 79.843033 -7.651198 4.604359 -66.202531 5.647311 6.567681 0.301529 -9.851427 2.213360 1.252817 -3.503125 0.000000 0.000000 0.000000 2.134167 1.287666 -3.544562 -0.726366 1.472297 3.093046 -7.529535 54.155870 -2.182894 -0.000000 -0.000000 0.000000 7.748743 12.716434 -7.899209 0.000000 0.000000 0.000000 3.768040 9.179773 -48.813846 -14.713872 -50.244531 -8.593150 -62.145289 -0.745704 11.047871 40.109886 -15.297233 -0.360540 5.639845 28.097925 11.338777 1.088594 40.896277 22.734008 0.000001 -0.000000 0.000000 6.882178 2.840053 -61.140479 8.247981 7.640100 -89.897809 2.146078 8.173400 -41.827778 -0.000001 -0.000002 -0.000000 -2.345587 4.688880 -62.655245 8.754100 9.897166 -87.051253 1.995390 4.929266 -37.483347 -0.000000 -0.000003 -0.000000 -9.042499 10.045739 -60.766253 8.524042 9.508833 -66.892960 6.576555 9.896755 -70.385202 -0.000000 -0.000001 -0.000000 -17.946981 14.755002 -51.485901 8.868429 8.667056 -84.811975 4.540488 8.852524 -59.153024 -0.000001 0.000003 -0.000001 -1.130650 1.067005 0.184881 0.000000 0.000000 0.000000 14.688259 15.673575 54.960008 -0.682695 33.923432 1.183339 -47.488796 7.229290 -35.346185 -1.746933 -5.633444 9.467130 1.769607 -24.313720 -7.223178 -3.576686 7.904298 3.616467 -0.000002 0.000001 -0.000005 0.055238 0.373339 0.873917 -0.045527 -0.390797 7.572027 -0.096379 -2.347379 -0.186925 0.000003 0.000002 -0.000002 0.374759 -5.832935 1.407350 1.498669 -4.485157 26.058292 -0.006502 0.218701 3.995382 -0.000001 0.000002 0.000001 1.026391 -11.929855 2.279485 1.646400 -3.560633 25.559937 1.463192 -4.272865 21.169031 0.000002 0.000001 -0.000000 2.327902 -19.238759 13.973350 3.124603 -1.790153 17.283088 6.297692 -4.907015 28.255041 0.000001 0.000001 0.000000 -41.144097 7.826507 37.097947 55.202579 0.108463 -0.106796 -0.999506 3.960631 -16.780781 1.978040 -0.000528 -0.000001 -0.000000 -0.000003 0.000001 -34.416285 -15.097715 -33.994524 42.766328 9.059771 0.722822 -12.664375 -0.262558 17.083826 0.000256 -0.000157 0.000006 -0.000000 0.000000 -0.000000 
3.942779 79.420151 -7.191504 4.512405 -68.040965 5.772868 7.426047 0.460397 -9.903432 2.596585 1.518466 -3.801018 0.000000 0.000000 0.000000 2.492143 1.563045 -3.857253 -0.932587 1.253276 2.928706 -9.210483 55.518113 -1.362792 -0.000000 -0.000000 0.000000 7.224903 11.907279 -8.568569 0.000000 0.000000 0.000000 -2.264317 11.705494 -47.207556 -12.391288 -47.836336 -6.593967 -56.577192 -1.497018 9.008529 40.109931 -15.297225 -0.360505 5.639834 28.097933 11.338812 1.088567 40.896277 22.734003 0.000000 -0.000001 -0.000001 6.882217 2.840030 -61.140486 8.247945 7.640058 -89.897850 2.146041 8.173408 -41.827747 0.000000 0.000001 0.000000 -2.345565 4.688853 -62.655272 8.754085 9.897190 -87.051287 1.995404 4.929254 -37.483341 0.000001 0.000003 0.000000 -9.042528 10.045743 -60.766260 8.524089 9.508842 -66.892981 6.576521 9.896749 -70.385181 -0.000000 0.000001 -0.000001 -17.946967 14.755019 -51.485922 8.868428 8.667046 -84.812003 4.540473 8.852548 -59.153017 0.000000 -0.000001 0.000000 -1.065462 1.265480 0.198264 0.000000 0.000000 0.000000 14.656631 14.472744 55.165997 -4.528749 30.845944 3.374015 -47.603970 6.503092 -36.543312 -2.346129 -6.100541 10.731415 2.076119 -24.043436 -8.030814 -4.045018 10.085871 4.402651 -0.000002 -0.000001 0.000001 -0.054793 0.532064 0.738697 0.019791 -0.087311 5.078592 -0.004027 -2.004452 -2.834075 0.000002 0.000001 -0.000001 0.381866 -5.810079 1.088494 1.432691 -4.204243 24.052139 0.015192 0.822422 0.193458 0.000000 -0.000001 0.000000 1.176587 -11.785460 3.841128 1.607178 -3.502565 25.206251 1.319750 -3.995388 19.486856 0.000000 0.000001 0.000000 2.615602 -19.318232 17.991246 3.315356 -2.067402 18.569823 6.279241 -4.877385 28.066939 0.000000 0.000000 -0.000000 -39.708199 7.252623 36.574027 52.825848 -1.058707 -0.079296 -4.136841 2.100563 -15.979303 2.145197 -0.000508 -0.000016 0.000000 0.000000 -0.000000 -34.435778 -13.222535 -33.480160 43.449781 9.177752 0.518738 -12.863634 -0.250811 17.433628 0.000321 -0.000184 -0.000002 -0.000000 0.000000 -0.000000 
3.760247 78.982208 -6.633943 4.599773 -69.096885 6.001132 8.345844 0.093253 -9.814970 3.018319 1.678091 -4.067151 0.000000 0.000000 0.000000 2.881017 1.725152 -4.151141 -0.981799 1.071889 2.832522 -11.175562 56.782317 -0.649285 -0.000000 -0.000000 0.000000 6.677908 10.753154 -8.549233 0.000000 0.000000 0.000000 -8.021126 14.587834 -46.182689 -13.712495 -45.464625 -7.520424 -48.869942 -1.339820 7.345909 40.109910 -15.297264 -0.360560 5.639821 28.097964 11.338833 1.088558 40.896280 22.734003 -0.000001 0.000001 0.000002 6.882194 2.840015 -61.140513 8.247983 7.640110 -89.897864 2.146051 8.173389 -41.827740 0.000000 -0.000002 -0.000001 -2.345554 4.688845 -62.655272 8.754080 9.897131 -87.051314 1.995389 4.929245 -37.483385 0.000000 -0.000001 -0.000001 -9.042528 10.045713 -60.766226 8.524075 9.508866 -66.892953 6.576536 9.896744 -70.385188 0.000000 0.000004 0.000001 -17.946986 14.755019 -51.485884 8.868447 8.667071 -84.811941 4.540464 8.852536 -59.153017 -0.000000 0.000004 0.000001 -0.941220 1.430427 0.218053 0.000000 0.000000 0.000000 14.222952 13.758797 55.030103 -5.122349 28.405594 3.551385 -49.977768 5.601603 -36.818247 -2.731564 -6.426733 11.574430 2.364106 -23.806186 -8.771057 -4.529249 12.124781 5.155753 -0.000001 -0.000001 0.000000 -0.124210 0.615523 0.793045 0.070679 0.090711 3.555009 0.063425 -1.801167 -4.460283 -0.000003 0.000000 -0.000000 0.372803 -5.839094 1.492317 1.402480 -4.036297 22.855975 0.067470 1.336868 -3.089690 -0.000000 -0.000001 0.000001 1.383446 -11.568627 6.136995 1.656974 -3.576016 25.654144 1.236969 -3.828889 18.507554 0.000000 0.000001 -0.000001 2.906246 -19.368576 22.456796 3.612584 -2.462293 20.466638 6.302636 -4.914810 28.305135 -0.000000 -0.000000 -0.000002 -39.186110 7.115770 35.599206 50.626260 -3.723398 -0.079797 -7.381476 0.645384 -14.398935 2.838627 -0.000565 -0.000010 -0.000000 -0.000000 -0.000000 -34.241521 -11.578549 -33.249252 43.998019 9.034133 0.327967 -13.129967 -0.515383 18.136410 -0.001684 -0.000143 -0.000022 -0.000000 -0.000000 -0.000000 
3.621253 78.575409 -6.081351 4.753936 -69.963397 6.271942 9.331111 -0.072671 -9.707627 3.397636 1.758899 -4.272319 0.000000 0.000000 0.000000 3.242722 1.798979 -4.382678 -0.898292 1.097332 2.897775 -13.021779 57.653975 -0.236447 0.000000 0.000000 -0.000000 6.161466 9.525333 -8.649472 0.000000 0.000000 0.000000 -13.098020 17.120286 -45.158772 -10.163049 -44.135709 -4.830611 -45.143387 -1.467073 5.878631 40.109910 -15.297247 -0.360553 5.639829 28.097911 11.338789 1.088574 40.896290 22.734005 -0.000003 -0.000001 0.000001 6.882189 2.840051 -61.140479 8.247969 7.640122 -89.897830 2.146092 8.173413 -41.827771 -0.000001 -0.000003 -0.000001 -2.345552 4.688901 -62.655313 8.754078 9.897138 -87.051266 1.995404 4.929254 -37.483327 0.000000 -0.000000 -0.000000 -9.042507 10.045759 -60.766212 8.524067 9.508825 -66.892981 6.576540 9.896759 -70.385161 -0.000001 -0.000003 0.000001 -17.946962 14.755012 -51.485898 8.868401 8.667023 -84.811982 4.540432 8.852548 -59.153031 -0.000000 -0.000001 -0.000000 -0.733836 1.485824 0.243878 0.000000 0.000000 0.000000 13.715255 13.538940 54.727905 -5.815029 26.602204 3.807472 -51.655283 4.845661 -36.496269 -2.824973 -6.508960 11.782582 2.559032 -23.654234 -9.262970 -5.012422 13.984942 5.861542 -0.000002 0.000000 -0.000002 -0.141396 0.636195 0.806478 0.083852 0.134273 3.178276 0.080781 -1.751376 -4.862473 -0.000002 -0.000001 -0.000004 0.350494 -5.911147 2.483825 1.395571 -3.994677 22.560253 0.133931 1.746544 -5.753052 0.000000 0.000000 0.000003 1.614282 -11.296902 8.951127 1.782016 -3.754157 26.754401 1.217033 -3.787336 18.265440 -0.000000 0.000000 -0.000001 3.169399 -19.383701 27.064039 4.003456 -2.924275 22.800051 6.360992 -5.006504 28.890225 0.000000 -0.000000 -0.000001 -38.970894 7.127055 34.307415 48.595642 -6.690883 -0.089591 -7.842163 -0.907814 -11.919989 3.881871 -0.000517 -0.000007 -0.000000 0.000001 -0.000001 -34.167632 -10.233017 -33.171698 44.450075 8.953196 0.138063 -13.319172 -0.698138 18.807117 -0.001691 -0.000164 -0.000008 0.000000 -0.000000 -0.000000 
